# xmcd
# 
# Track frame offsets:
#     150
#     15857
#     34392
#     52922
#     74713
#     92530
#     117024
#     127913
#     148734
#     165812
#     186431
# 
# Disc length: 2716
# 
# Revision: 3
# Processed by: cddbd v1.5.2PL0 Copyright (c) Steve Scherf et al.
# Submitted via: fre:ac v1.0.31
# 
DISCID=8a0a9a0b
DTITLE=John David Souther - Natural History
DYEAR=2011
DGENRE=Rock/Pop
TTITLE0=Go Ahead And Rain
TTITLE1=Faithless Love
TTITLE2=You're Only Lonely
TTITLE3=The Sad Café
TTITLE4=Silver Blue
TTITLE5=New Kid In Town
TTITLE6=I'll Take Care OF You
TTITLE7=Little Victories
TTITLE8=Prisoner In Disguise
TTITLE9=Best Of My Love
TTITLE10=I'll Be Here At Closing Time
EXTD=
EXTT0=
EXTT1=
EXTT2=
EXTT3=
EXTT4=
EXTT5=
EXTT6=
EXTT7=
EXTT8=
EXTT9=
EXTT10=
PLAYORDER=
